<svg id="Layer_1" data-name="Layer 1" xmlns="http://www.w3.org/2000/svg" viewBox="0 0 340.16 122.44"><defs><style>.cls-1{fill:#00afad;}.cls-2{fill:#fff;}</style></defs><path class="cls-1" d="M327.08,87.4a3.8,3.8,0,1,0,3.8,3.8A3.8,3.8,0,0,0,327.08,87.4Z"/><path class="cls-1" d="M336.36,87.4a3.8,3.8,0,1,0,3.8,3.8A3.8,3.8,0,0,0,336.36,87.4Z"/><path class="cls-2" d="M261.88,105.83a36.37,36.37,0,0,0-4.91-1.77,35.94,35.94,0,0,1-3.42-1.17,6.27,6.27,0,0,1-2-1.33,2.79,2.79,0,0,1-.81-2,3.37,3.37,0,0,1,1.08-2.7,4.28,4.28,0,0,1,2.89-.92,5.09,5.09,0,0,1,3.34,1,3.57,3.57,0,0,1,1.25,2,.85.85,0,0,0,.83.68h5.12a.86.86,0,0,0,.84-1,8.35,8.35,0,0,0-3.18-5.48,12.24,12.24,0,0,0-7.75-2.32,14,14,0,0,0-5.66,1.08A8.65,8.65,0,0,0,245.62,95a8.26,8.26,0,0,0-1.37,4.77,7.48,7.48,0,0,0,1.34,4.66,8.69,8.69,0,0,0,3.23,2.61,38,38,0,0,0,4.88,1.74c1.47.42,2.63.79,3.47,1.13a5.89,5.89,0,0,1,2.1,1.39,3.14,3.14,0,0,1,.84,2.26,3.35,3.35,0,0,1-1.24,2.71,5.08,5.08,0,0,1-3.4,1,4.82,4.82,0,0,1-3.34-1.1,4.17,4.17,0,0,1-1.26-2.32.84.84,0,0,0-.82-.69h-5a.86.86,0,0,0-.85.94,8.23,8.23,0,0,0,1.49,4,9.68,9.68,0,0,0,4.09,3.18,14.57,14.57,0,0,0,5.81,1.1,12.81,12.81,0,0,0,5.88-1.26,8.75,8.75,0,0,0,4.69-5.52,9.2,9.2,0,0,0,.35-2.56,7.33,7.33,0,0,0-1.37-4.53A8.9,8.9,0,0,0,261.88,105.83Z"/><path class="cls-2" d="M293.9,97.57h-4.53a.84.84,0,0,0-.85.84v2.64a9.7,9.7,0,0,0-3.29-2.78,10.05,10.05,0,0,0-4.79-1.11,10.69,10.69,0,0,0-5.68,1.55,10.88,10.88,0,0,0-4,4.42,14.27,14.27,0,0,0-1.48,6.58,14.52,14.52,0,0,0,1.48,6.66,11.11,11.11,0,0,0,4,4.48,10.39,10.39,0,0,0,5.63,1.59,10,10,0,0,0,4.84-1.13,9.21,9.21,0,0,0,3.29-2.85v2.74a.84.84,0,0,0,.85.84h4.53a.84.84,0,0,0,.85-.84V98.41A.84.84,0,0,0,293.9,97.57Zm-6.26,16.1a6.28,6.28,0,0,1-2.39,2.48A6.43,6.43,0,0,1,282,117a6.07,6.07,0,0,1-3.16-.89,6.43,6.43,0,0,1-2.38-2.54,8,8,0,0,1-.9-3.87,7.73,7.73,0,0,1,.9-3.82A6.21,6.21,0,0,1,282,102.6a6.43,6.43,0,0,1,3.23.86,6.28,6.28,0,0,1,2.39,2.48,8.93,8.93,0,0,1,0,7.73Z"/><path class="cls-2" d="M314.56,105.08v-.18a7,7,0,0,0,3.43-2.59,7.67,7.67,0,0,0,1.43-4.7,8.19,8.19,0,0,0-1.17-4.35,8.06,8.06,0,0,0-3.47-3.05,12.43,12.43,0,0,0-5.52-1.13,11.5,11.5,0,0,0-7.62,2.41,8.67,8.67,0,0,0-3,5.86.87.87,0,0,0,.85,1h4.41a.85.85,0,0,0,.82-.66,4.53,4.53,0,0,1,1.2-2.2,4.33,4.33,0,0,1,3.2-1.12,4.54,4.54,0,0,1,3.25,1.06,3.87,3.87,0,0,1,1.13,3q0,4.2-6.28,4.2h-.43a.85.85,0,0,0-.85.85v3.38a.85.85,0,0,0,.85.85h.43a9.35,9.35,0,0,1,5.22,1.15,4.26,4.26,0,0,1,1.68,3.8,4.5,4.5,0,0,1-1.22,3.25,4.6,4.6,0,0,1-3.47,1.26,5.37,5.37,0,0,1-3.82-1.31,4.58,4.58,0,0,1-1.41-2.74.86.86,0,0,0-.84-.73H299a.86.86,0,0,0-.85.94,9.1,9.1,0,0,0,3.25,6.49,14.33,14.33,0,0,0,13.81,1.34,8.26,8.26,0,0,0,3.58-3.24,9.21,9.21,0,0,0,1.22-4.73,8.84,8.84,0,0,0-1.44-5.22A7.45,7.45,0,0,0,314.56,105.08Z"/><rect class="cls-2" x="323.98" y="97.56" width="6.19" height="24.48" rx="0.85"/><rect class="cls-2" x="333.26" y="97.56" width="6.19" height="24.48" rx="0.85"/><path class="cls-2" d="M338.91,43.84h-9.14a1.25,1.25,0,0,0-1.25,1.25V62.73c0,5-2,7.43-5.85,7.43h-7.35a24.15,24.15,0,0,0,1.41-8.34V45.09a1.25,1.25,0,0,0-1.25-1.25h-9.05a1.25,1.25,0,0,0-1.25,1.25V62.73c0,5-2,7.43-5.86,7.43H292a24.39,24.39,0,0,0,1.4-8.34V45.09a1.25,1.25,0,0,0-1.25-1.25H283a1.25,1.25,0,0,0-1.25,1.25V62.24a11.5,11.5,0,0,1-.5,4.29,5.29,5.29,0,0,1-5.36,3.63H265.66c-8.5,0-9.9-3-9.9-8.58V29.25A1.25,1.25,0,0,0,254.51,28h-9a1.25,1.25,0,0,0-1.25,1.25V67.6c0,8.5,5.12,13.61,13.94,13.61h64.93a16.14,16.14,0,0,0,11.05-4.37c4.05-3.63,6-8.66,6-15.1V45.09A1.25,1.25,0,0,0,338.91,43.84Z"/><path class="cls-2" d="M236.77,70.16H222.86a8.55,8.55,0,0,1-8.6-8.37v-.13A10.07,10.07,0,0,1,216,55.55a6,6,0,0,1,5.36-2.8,6.24,6.24,0,0,1,6.13,3.7,1.26,1.26,0,0,0,1.66.62l7.13-3.29a1.26,1.26,0,0,0,.58-1.74,16.92,16.92,0,0,0-15.25-9.27,17.54,17.54,0,0,0-13.45,5.69A19.72,19.72,0,0,0,203,62.24a23.15,23.15,0,0,0,1.65,7.92H204c-4.95,0-7.84-1.24-9.82-5-4-7.59-10.15-11.38-18.48-11.38-1.71,0-3,0-3.82,0A1.24,1.24,0,0,0,170.7,55V62.4A1.25,1.25,0,0,0,172,63.67q.33,0,.66,0a7.41,7.41,0,0,1,7.67,7.26c0,7.67-8.5,13.28-17.41,13.28-11.71,0-18.23-7.42-18.23-18.48V58.12a1.25,1.25,0,0,0-1.25-1.25h-9.11a1.19,1.19,0,0,0-1.19,1.19v8.71c0,16,13,28.14,29.53,28.14,13.45,0,25.17-7.43,27.73-18.57,3.05,3.06,7.68,4.68,13.85,4.84l32.5,0A1.25,1.25,0,0,0,238,80V71.41A1.25,1.25,0,0,0,236.77,70.16Z"/><circle class="cls-2" cx="155.96" cy="104.05" r="5.02" transform="translate(-19.73 38.62) rotate(-13.28)"/><circle class="cls-2" cx="167.61" cy="104.05" r="5.02"/><path class="cls-1" d="M35.9,101,12.69,87.57a.83.83,0,0,1-.43-.73V67.74A2.13,2.13,0,0,0,12,66.66a2.14,2.14,0,0,0-4,1.08v19.1a5.11,5.11,0,0,0,2.57,4.43l23.2,13.42A2.14,2.14,0,1,0,35.9,101Z"/><path class="cls-1" d="M61.58,94.6a2.15,2.15,0,0,0-2.52.31L46.89,106.4a.77.77,0,0,1-.4.18,3.82,3.82,0,0,1-.64-.16.68.68,0,0,1-.33-.59V78.91a1.93,1.93,0,0,1,.68-1.5L49.79,75l68.72-47.21a2.14,2.14,0,0,0-2.42-3.53L43.71,73.94l-.08,0a6.26,6.26,0,0,0-2.35,4.3c0,.2,0,.41,0,.62v26.92a5,5,0,0,0,2.49,4.32,7,7,0,0,0,2.32.69,1.43,1.43,0,0,0,.29,0,5.06,5.06,0,0,0,3.37-1.25L62,98a2.14,2.14,0,0,0-.42-3.42Z"/><path class="cls-1" d="M144.45,1.63h0a5.08,5.08,0,0,0-6-1.11L21.93,61.23a2,2,0,0,1-1.86,0L3.15,51.55a2.14,2.14,0,0,0-2.12,0,2.18,2.18,0,0,0,.11,3.77l17.2,9.73v6.8a2.19,2.19,0,0,0,1.11,1.9l2.49,1.33a2.17,2.17,0,0,0,3.23-1.9s-.08-8.47-.1-8.57L140.34,4.37a.82.82,0,0,1,1,.18.85.85,0,0,1,.11,1L87.78,98.73a.92.92,0,0,1-.22.26.87.87,0,0,1-1,0L53,79.9a2.12,2.12,0,0,0-1.06-.29,2.14,2.14,0,0,0-1.06,4L84.41,102.7a5.15,5.15,0,0,0,1.33.56,4.89,4.89,0,0,0,1.32.18,5.11,5.11,0,0,0,3.07-1,4.92,4.92,0,0,0,1.39-1.6L145.14,7.67A5.12,5.12,0,0,0,144.45,1.63Z"/></svg>