<svg id="Layer_1" data-name="Layer 1" xmlns="http://www.w3.org/2000/svg" viewBox="0 0 145.82 110.87"><defs><style>.cls-1{fill:#00afad;}</style></defs><path class="cls-1" d="M35.9,101,12.69,87.57a.83.83,0,0,1-.43-.73V67.74A2.13,2.13,0,0,0,12,66.66a2.14,2.14,0,0,0-4,1.08v19.1a5.11,5.11,0,0,0,2.57,4.43l23.2,13.42A2.14,2.14,0,1,0,35.9,101Z"/><path class="cls-1" d="M61.58,94.6a2.15,2.15,0,0,0-2.52.31L46.89,106.4a.77.77,0,0,1-.4.18,3.82,3.82,0,0,1-.64-.16.68.68,0,0,1-.33-.59V78.91a1.93,1.93,0,0,1,.68-1.5L49.79,75l68.72-47.21a2.14,2.14,0,0,0-2.42-3.53L43.71,73.94l-.08,0a6.26,6.26,0,0,0-2.35,4.3c0,.2,0,.41,0,.62v26.92a5,5,0,0,0,2.49,4.32,7,7,0,0,0,2.32.69,1.43,1.43,0,0,0,.29,0,5.06,5.06,0,0,0,3.37-1.25L62,98a2.14,2.14,0,0,0-.42-3.42Z"/><path class="cls-1" d="M144.45,1.63h0a5.08,5.08,0,0,0-6-1.11L21.93,61.23a2,2,0,0,1-1.86,0L3.15,51.55a2.14,2.14,0,0,0-2.12,0,2.18,2.18,0,0,0,.11,3.77l17.2,9.73v6.8a2.19,2.19,0,0,0,1.11,1.9l2.49,1.33a2.17,2.17,0,0,0,3.23-1.9s-.08-8.47-.1-8.57L140.34,4.37a.82.82,0,0,1,1,.18.85.85,0,0,1,.11,1L87.78,98.73a.92.92,0,0,1-.22.26.87.87,0,0,1-1,0L53,79.9a2.12,2.12,0,0,0-1.06-.29,2.14,2.14,0,0,0-1.06,4L84.41,102.7a5.15,5.15,0,0,0,1.33.56,4.89,4.89,0,0,0,1.32.18,5.11,5.11,0,0,0,3.07-1,4.92,4.92,0,0,0,1.39-1.6L145.14,7.67A5.12,5.12,0,0,0,144.45,1.63Z"/></svg>